<svg xmlns="http://www.w3.org/2000/svg" viewBox="0 0 512 512" width="512" height="512">
  <!-- ASSET DE PRUEBA. No pertenece al pack del cliente. -->
  <g fill="none" stroke="#8a5a3b" stroke-width="26" stroke-linecap="round">
    <path d="M196 82c-18 22-18 42 0 64s18 42 0 64"/>
    <path d="M276 82c-18 22-18 42 0 64s18 42 0 64"/>
  </g>
  <path d="M112 246h248v92c0 57-46 104-104 104h-40c-57 0-104-47-104-104z" fill="#f6efe4"/>
  <path d="M112 246h248v34c0 18-14 32-32 32H144c-18 0-32-14-32-32z" fill="#6f4326"/>
  <path d="M360 274h22c34 0 60 27 60 60s-26 60-60 60h-30v-44h30c10 0 16-7 16-16s-6-16-16-16h-22z" fill="#f6efe4"/>
  <rect x="92" y="452" width="288" height="30" rx="15" fill="#8a5a3b"/>
</svg>
